<mxfile host="65bd71144e">
    <diagram name="Page-1" id="QmgooOB9zh-g-eOi-oqv">
        <mxGraphModel dx="3126" dy="2728" grid="1" gridSize="10" guides="1" tooltips="1" connect="1" arrows="1" fold="1" page="1" pageScale="1" pageWidth="850" pageHeight="1100" background="none" math="0" shadow="0">
            <root>
                <mxCell id="0"/>
                <mxCell id="1" parent="0"/>
                <mxCell id="6UBSCnJgMbBsTfhwPMBy-22" style="rounded=0;orthogonalLoop=1;jettySize=auto;html=1;exitX=1;exitY=0.25;exitDx=0;exitDy=0;entryX=0;entryY=0.5;entryDx=0;entryDy=0;endArrow=none;endFill=0;" parent="1" source="6UBSCnJgMbBsTfhwPMBy-1" target="6UBSCnJgMbBsTfhwPMBy-15" edge="1">
                    <mxGeometry relative="1" as="geometry"/>
                </mxCell>
                <mxCell id="6UBSCnJgMbBsTfhwPMBy-28" style="rounded=0;orthogonalLoop=1;jettySize=auto;html=1;exitX=1;exitY=1;exitDx=0;exitDy=0;entryX=0;entryY=0.5;entryDx=0;entryDy=0;endArrow=none;endFill=0;" parent="1" target="6UBSCnJgMbBsTfhwPMBy-19" edge="1">
                    <mxGeometry relative="1" as="geometry">
                        <mxPoint x="1020" y="-380" as="sourcePoint"/>
                    </mxGeometry>
                </mxCell>
                <mxCell id="6UBSCnJgMbBsTfhwPMBy-29" style="edgeStyle=none;rounded=0;orthogonalLoop=1;jettySize=auto;html=1;exitX=1;exitY=0;exitDx=0;exitDy=0;entryX=0;entryY=0.5;entryDx=0;entryDy=0;endArrow=none;endFill=0;" parent="1" source="6UBSCnJgMbBsTfhwPMBy-1" target="6UBSCnJgMbBsTfhwPMBy-12" edge="1">
                    <mxGeometry relative="1" as="geometry"/>
                </mxCell>
                <mxCell id="6UBSCnJgMbBsTfhwPMBy-163" style="edgeStyle=none;rounded=0;orthogonalLoop=1;jettySize=auto;html=1;exitX=0;exitY=1;exitDx=0;exitDy=0;entryX=0;entryY=0.5;entryDx=0;entryDy=0;endArrow=none;endFill=0;" parent="1" source="6UBSCnJgMbBsTfhwPMBy-1" target="6UBSCnJgMbBsTfhwPMBy-162" edge="1">
                    <mxGeometry relative="1" as="geometry"/>
                </mxCell>
                <mxCell id="6UBSCnJgMbBsTfhwPMBy-1" value="&lt;h1&gt;user&lt;/h1&gt;" style="rounded=0;whiteSpace=wrap;html=1;" parent="1" vertex="1">
                    <mxGeometry x="910" y="-440" width="120" height="60" as="geometry"/>
                </mxCell>
                <mxCell id="6UBSCnJgMbBsTfhwPMBy-4" value="&lt;h1&gt;goods&lt;/h1&gt;" style="rounded=0;whiteSpace=wrap;html=1;" parent="1" vertex="1">
                    <mxGeometry x="470" y="150" width="120" height="60" as="geometry"/>
                </mxCell>
                <mxCell id="6UBSCnJgMbBsTfhwPMBy-226" style="edgeStyle=none;rounded=0;orthogonalLoop=1;jettySize=auto;html=1;exitX=0;exitY=0.5;exitDx=0;exitDy=0;entryX=0.5;entryY=0;entryDx=0;entryDy=0;shape=link;" parent="1" source="6UBSCnJgMbBsTfhwPMBy-6" target="6UBSCnJgMbBsTfhwPMBy-228" edge="1">
                    <mxGeometry relative="1" as="geometry">
                        <mxPoint x="140" y="-563" as="targetPoint"/>
                        <Array as="points">
                            <mxPoint x="80" y="-560"/>
                            <mxPoint x="80" y="-920"/>
                            <mxPoint x="1500" y="-920"/>
                        </Array>
                    </mxGeometry>
                </mxCell>
                <mxCell id="6UBSCnJgMbBsTfhwPMBy-6" value="&lt;h1&gt;purchase&lt;/h1&gt;" style="rounded=0;whiteSpace=wrap;html=1;" parent="1" vertex="1">
                    <mxGeometry x="357.5" y="-594" width="120" height="60" as="geometry"/>
                </mxCell>
                <mxCell id="6UBSCnJgMbBsTfhwPMBy-7" value="&lt;h1&gt;address&lt;/h1&gt;" style="rounded=0;whiteSpace=wrap;html=1;" parent="1" vertex="1">
                    <mxGeometry x="910" y="-720" width="120" height="60" as="geometry"/>
                </mxCell>
                <mxCell id="6UBSCnJgMbBsTfhwPMBy-8" value="&lt;h1&gt;buyer&lt;br&gt;&lt;/h1&gt;" style="rounded=0;whiteSpace=wrap;html=1;" parent="1" vertex="1">
                    <mxGeometry x="880" y="-20" width="120" height="60" as="geometry"/>
                </mxCell>
                <mxCell id="6UBSCnJgMbBsTfhwPMBy-9" value="&lt;h1&gt;comment&lt;/h1&gt;" style="rounded=0;whiteSpace=wrap;html=1;" parent="1" vertex="1">
                    <mxGeometry x="980" y="280" width="120" height="60" as="geometry"/>
                </mxCell>
                <mxCell id="6UBSCnJgMbBsTfhwPMBy-12" value="&lt;font style=&quot;font-size: 15px;&quot;&gt;&lt;i&gt;&lt;u&gt;id&lt;/u&gt;&lt;/i&gt;&lt;/font&gt;" style="ellipse;whiteSpace=wrap;html=1;" parent="1" vertex="1">
                    <mxGeometry x="1250" y="-574" width="100" height="40" as="geometry"/>
                </mxCell>
                <mxCell id="6UBSCnJgMbBsTfhwPMBy-15" value="&lt;span style=&quot;font-size: 15px;&quot;&gt;name&lt;/span&gt;" style="ellipse;whiteSpace=wrap;html=1;" parent="1" vertex="1">
                    <mxGeometry x="1245" y="-510" width="100" height="40" as="geometry"/>
                </mxCell>
                <mxCell id="6UBSCnJgMbBsTfhwPMBy-19" value="&lt;font style=&quot;font-size: 15px;&quot;&gt;email&lt;br&gt;&lt;/font&gt;" style="ellipse;whiteSpace=wrap;html=1;" parent="1" vertex="1">
                    <mxGeometry x="1250" y="-320" width="100" height="40" as="geometry"/>
                </mxCell>
                <mxCell id="6UBSCnJgMbBsTfhwPMBy-149" style="edgeStyle=none;rounded=0;orthogonalLoop=1;jettySize=auto;html=1;exitX=1;exitY=0.5;exitDx=0;exitDy=0;entryX=0;entryY=0.5;entryDx=0;entryDy=0;endArrow=none;endFill=0;" parent="1" edge="1">
                    <mxGeometry relative="1" as="geometry">
                        <mxPoint x="1230" y="140" as="sourcePoint"/>
                    </mxGeometry>
                </mxCell>
                <mxCell id="6UBSCnJgMbBsTfhwPMBy-34" style="edgeStyle=none;rounded=0;orthogonalLoop=1;jettySize=auto;html=1;exitX=1;exitY=0.5;exitDx=0;exitDy=0;entryX=0;entryY=0.5;entryDx=0;entryDy=0;endArrow=none;endFill=0;" parent="1" source="6UBSCnJgMbBsTfhwPMBy-9" target="6UBSCnJgMbBsTfhwPMBy-35" edge="1">
                    <mxGeometry relative="1" as="geometry">
                        <mxPoint x="1410" y="340" as="sourcePoint"/>
                    </mxGeometry>
                </mxCell>
                <mxCell id="6UBSCnJgMbBsTfhwPMBy-35" value="&lt;font style=&quot;font-size: 15px;&quot;&gt;&lt;i&gt;&lt;u&gt;id&lt;/u&gt;&lt;/i&gt;&lt;/font&gt;" style="ellipse;whiteSpace=wrap;html=1;" parent="1" vertex="1">
                    <mxGeometry x="1237.5" y="310" width="100" height="40" as="geometry"/>
                </mxCell>
                <mxCell id="6UBSCnJgMbBsTfhwPMBy-36" style="rounded=0;orthogonalLoop=1;jettySize=auto;html=1;exitX=1;exitY=0;exitDx=0;exitDy=0;entryX=0;entryY=0.5;entryDx=0;entryDy=0;endArrow=none;endFill=0;" parent="1" source="6UBSCnJgMbBsTfhwPMBy-9" target="6UBSCnJgMbBsTfhwPMBy-37" edge="1">
                    <mxGeometry relative="1" as="geometry">
                        <mxPoint x="1380" y="395" as="sourcePoint"/>
                    </mxGeometry>
                </mxCell>
                <mxCell id="6UBSCnJgMbBsTfhwPMBy-37" value="&lt;span style=&quot;font-size: 15px;&quot;&gt;content&lt;br&gt;&lt;/span&gt;" style="ellipse;whiteSpace=wrap;html=1;" parent="1" vertex="1">
                    <mxGeometry x="1230" y="250" width="100" height="40" as="geometry"/>
                </mxCell>
                <mxCell id="6UBSCnJgMbBsTfhwPMBy-43" style="rounded=0;orthogonalLoop=1;jettySize=auto;html=1;exitX=1;exitY=1;exitDx=0;exitDy=0;entryX=0;entryY=0.5;entryDx=0;entryDy=0;endArrow=none;endFill=0;" parent="1" source="6UBSCnJgMbBsTfhwPMBy-9" target="6UBSCnJgMbBsTfhwPMBy-44" edge="1">
                    <mxGeometry relative="1" as="geometry">
                        <mxPoint x="1400" y="320" as="sourcePoint"/>
                    </mxGeometry>
                </mxCell>
                <mxCell id="6UBSCnJgMbBsTfhwPMBy-44" value="&lt;span style=&quot;font-size: 15px;&quot;&gt;picutres&lt;br&gt;&lt;/span&gt;" style="ellipse;whiteSpace=wrap;html=1;" parent="1" vertex="1">
                    <mxGeometry x="1230" y="370" width="100" height="40" as="geometry"/>
                </mxCell>
                <mxCell id="6UBSCnJgMbBsTfhwPMBy-50" style="edgeStyle=none;rounded=0;orthogonalLoop=1;jettySize=auto;html=1;entryX=0;entryY=0.5;entryDx=0;entryDy=0;endArrow=none;endFill=0;exitX=1;exitY=0.75;exitDx=0;exitDy=0;" parent="1" source="6UBSCnJgMbBsTfhwPMBy-3" target="6UBSCnJgMbBsTfhwPMBy-51" edge="1">
                    <mxGeometry relative="1" as="geometry">
                        <mxPoint x="360" y="-10" as="sourcePoint"/>
                    </mxGeometry>
                </mxCell>
                <mxCell id="6UBSCnJgMbBsTfhwPMBy-51" value="&lt;font style=&quot;font-size: 15px;&quot;&gt;&lt;i&gt;&lt;u&gt;id&lt;/u&gt;&lt;/i&gt;&lt;/font&gt;" style="ellipse;whiteSpace=wrap;html=1;" parent="1" vertex="1">
                    <mxGeometry x="422.5" y="-170" width="100" height="40" as="geometry"/>
                </mxCell>
                <mxCell id="6UBSCnJgMbBsTfhwPMBy-54" style="edgeStyle=none;rounded=0;orthogonalLoop=1;jettySize=auto;html=1;entryX=0;entryY=0.5;entryDx=0;entryDy=0;endArrow=none;endFill=0;exitX=1;exitY=0.5;exitDx=0;exitDy=0;" parent="1" source="6UBSCnJgMbBsTfhwPMBy-7" target="6UBSCnJgMbBsTfhwPMBy-55" edge="1">
                    <mxGeometry relative="1" as="geometry">
                        <mxPoint x="980" y="-650" as="sourcePoint"/>
                    </mxGeometry>
                </mxCell>
                <mxCell id="6UBSCnJgMbBsTfhwPMBy-55" value="&lt;font style=&quot;font-size: 15px;&quot;&gt;&lt;i&gt;&lt;u&gt;id&lt;/u&gt;&lt;/i&gt;&lt;/font&gt;" style="ellipse;whiteSpace=wrap;html=1;" parent="1" vertex="1">
                    <mxGeometry x="1077.5" y="-710" width="100" height="40" as="geometry"/>
                </mxCell>
                <mxCell id="6UBSCnJgMbBsTfhwPMBy-56" style="edgeStyle=none;rounded=0;orthogonalLoop=1;jettySize=auto;html=1;entryX=0;entryY=0.5;entryDx=0;entryDy=0;endArrow=none;endFill=0;" parent="1" source="6UBSCnJgMbBsTfhwPMBy-4" target="6UBSCnJgMbBsTfhwPMBy-57" edge="1">
                    <mxGeometry relative="1" as="geometry">
                        <mxPoint x="550" y="320" as="sourcePoint"/>
                    </mxGeometry>
                </mxCell>
                <mxCell id="6UBSCnJgMbBsTfhwPMBy-57" value="&lt;font style=&quot;font-size: 15px;&quot;&gt;&lt;i&gt;&lt;u&gt;id&lt;/u&gt;&lt;/i&gt;&lt;/font&gt;" style="ellipse;whiteSpace=wrap;html=1;" parent="1" vertex="1">
                    <mxGeometry x="440" y="270" width="100" height="40" as="geometry"/>
                </mxCell>
                <mxCell id="6UBSCnJgMbBsTfhwPMBy-64" style="edgeStyle=none;rounded=0;orthogonalLoop=1;jettySize=auto;html=1;exitX=1;exitY=0.5;exitDx=0;exitDy=0;entryX=0;entryY=0.5;entryDx=0;entryDy=0;endArrow=none;endFill=0;shape=link;width=3.333333333333332;" parent="1" source="6UBSCnJgMbBsTfhwPMBy-61" target="6UBSCnJgMbBsTfhwPMBy-9" edge="1">
                    <mxGeometry relative="1" as="geometry">
                        <mxPoint x="1040" y="420" as="sourcePoint"/>
                    </mxGeometry>
                </mxCell>
                <mxCell id="6UBSCnJgMbBsTfhwPMBy-147" style="edgeStyle=none;rounded=0;orthogonalLoop=1;jettySize=auto;html=1;exitX=0;exitY=0.5;exitDx=0;exitDy=0;" parent="1" source="6UBSCnJgMbBsTfhwPMBy-61" target="6UBSCnJgMbBsTfhwPMBy-4" edge="1">
                    <mxGeometry relative="1" as="geometry"/>
                </mxCell>
                <mxCell id="6UBSCnJgMbBsTfhwPMBy-61" value="&lt;font style=&quot;font-size: 20px;&quot;&gt;about&lt;/font&gt;" style="rhombus;whiteSpace=wrap;html=1;" parent="1" vertex="1">
                    <mxGeometry x="750" y="140" width="80" height="80" as="geometry"/>
                </mxCell>
                <mxCell id="6UBSCnJgMbBsTfhwPMBy-70" style="rounded=0;orthogonalLoop=1;jettySize=auto;html=1;exitX=0;exitY=0.75;exitDx=0;exitDy=0;entryX=0;entryY=0.5;entryDx=0;entryDy=0;endArrow=none;endFill=0;" parent="1" source="6UBSCnJgMbBsTfhwPMBy-4" target="6UBSCnJgMbBsTfhwPMBy-71" edge="1">
                    <mxGeometry relative="1" as="geometry">
                        <mxPoint x="470" y="185" as="sourcePoint"/>
                    </mxGeometry>
                </mxCell>
                <mxCell id="6UBSCnJgMbBsTfhwPMBy-71" value="&lt;span style=&quot;font-size: 15px;&quot;&gt;description&lt;/span&gt;" style="ellipse;whiteSpace=wrap;html=1;" parent="1" vertex="1">
                    <mxGeometry x="222.5" y="210" width="100" height="40" as="geometry"/>
                </mxCell>
                <mxCell id="6UBSCnJgMbBsTfhwPMBy-76" style="rounded=0;orthogonalLoop=1;jettySize=auto;html=1;exitX=0;exitY=1;exitDx=0;exitDy=0;entryX=0;entryY=0.5;entryDx=0;entryDy=0;endArrow=none;endFill=0;" parent="1" source="6UBSCnJgMbBsTfhwPMBy-4" target="6UBSCnJgMbBsTfhwPMBy-77" edge="1">
                    <mxGeometry relative="1" as="geometry">
                        <mxPoint x="490" y="205" as="sourcePoint"/>
                    </mxGeometry>
                </mxCell>
                <mxCell id="6UBSCnJgMbBsTfhwPMBy-77" value="&lt;span style=&quot;font-size: 15px;&quot;&gt;name&lt;/span&gt;" style="ellipse;whiteSpace=wrap;html=1;" parent="1" vertex="1">
                    <mxGeometry x="290" y="270" width="100" height="40" as="geometry"/>
                </mxCell>
                <mxCell id="6UBSCnJgMbBsTfhwPMBy-81" style="rounded=0;orthogonalLoop=1;jettySize=auto;html=1;exitX=0;exitY=0;exitDx=0;exitDy=0;entryX=0;entryY=0.5;entryDx=0;entryDy=0;endArrow=none;endFill=0;" parent="1" source="6UBSCnJgMbBsTfhwPMBy-4" target="6UBSCnJgMbBsTfhwPMBy-82" edge="1">
                    <mxGeometry relative="1" as="geometry">
                        <mxPoint x="490" y="185" as="sourcePoint"/>
                    </mxGeometry>
                </mxCell>
                <mxCell id="6UBSCnJgMbBsTfhwPMBy-82" value="inventory" style="ellipse;whiteSpace=wrap;html=1;fontSize=15;" parent="1" vertex="1">
                    <mxGeometry x="322.5" y="50" width="100" height="40" as="geometry"/>
                </mxCell>
                <mxCell id="6UBSCnJgMbBsTfhwPMBy-85" style="rounded=0;orthogonalLoop=1;jettySize=auto;html=1;entryX=0;entryY=0.5;entryDx=0;entryDy=0;endArrow=none;endFill=0;exitX=1;exitY=1;exitDx=0;exitDy=0;" parent="1" source="6UBSCnJgMbBsTfhwPMBy-7" target="6UBSCnJgMbBsTfhwPMBy-86" edge="1">
                    <mxGeometry relative="1" as="geometry">
                        <mxPoint x="880" y="-610" as="sourcePoint"/>
                        <mxPoint x="1077.5" y="-610" as="targetPoint"/>
                    </mxGeometry>
                </mxCell>
                <mxCell id="6UBSCnJgMbBsTfhwPMBy-86" value="&lt;span style=&quot;font-size: 15px;&quot;&gt;post&lt;/span&gt;" style="ellipse;whiteSpace=wrap;html=1;" parent="1" vertex="1">
                    <mxGeometry x="1085" y="-634" width="100" height="40" as="geometry"/>
                </mxCell>
                <mxCell id="6UBSCnJgMbBsTfhwPMBy-91" style="edgeStyle=none;rounded=0;orthogonalLoop=1;jettySize=auto;html=1;exitX=0;exitY=0.5;exitDx=0;exitDy=0;entryX=1;entryY=0.75;entryDx=0;entryDy=0;endArrow=none;endFill=0;shape=link;" parent="1" source="6UBSCnJgMbBsTfhwPMBy-87" target="6UBSCnJgMbBsTfhwPMBy-4" edge="1">
                    <mxGeometry relative="1" as="geometry"/>
                </mxCell>
                <mxCell id="6UBSCnJgMbBsTfhwPMBy-187" style="edgeStyle=none;rounded=0;orthogonalLoop=1;jettySize=auto;html=1;exitX=1;exitY=0.5;exitDx=0;exitDy=0;entryX=1;entryY=0.5;entryDx=0;entryDy=0;" parent="1" source="6UBSCnJgMbBsTfhwPMBy-87" target="6UBSCnJgMbBsTfhwPMBy-153" edge="1">
                    <mxGeometry relative="1" as="geometry">
                        <Array as="points">
                            <mxPoint x="1500" y="500"/>
                            <mxPoint x="1500" y="-170"/>
                        </Array>
                    </mxGeometry>
                </mxCell>
                <mxCell id="6UBSCnJgMbBsTfhwPMBy-87" value="&lt;font style=&quot;font-size: 19px;&quot;&gt;sell&lt;/font&gt;" style="rhombus;whiteSpace=wrap;html=1;" parent="1" vertex="1">
                    <mxGeometry x="950" y="450" width="80" height="80" as="geometry"/>
                </mxCell>
                <mxCell id="6UBSCnJgMbBsTfhwPMBy-93" style="rounded=0;orthogonalLoop=1;jettySize=auto;html=1;exitX=1;exitY=0;exitDx=0;exitDy=0;entryX=0;entryY=0.5;entryDx=0;entryDy=0;endArrow=none;endFill=0;" parent="1" source="6UBSCnJgMbBsTfhwPMBy-7" target="6UBSCnJgMbBsTfhwPMBy-94" edge="1">
                    <mxGeometry relative="1" as="geometry">
                        <mxPoint x="890" y="-600" as="sourcePoint"/>
                    </mxGeometry>
                </mxCell>
                <mxCell id="6UBSCnJgMbBsTfhwPMBy-94" value="&lt;span style=&quot;font-size: 15px;&quot;&gt;address_detail&lt;/span&gt;" style="ellipse;whiteSpace=wrap;html=1;" parent="1" vertex="1">
                    <mxGeometry x="1070" y="-800" width="115" height="40" as="geometry"/>
                </mxCell>
                <mxCell id="6UBSCnJgMbBsTfhwPMBy-96" style="rounded=0;orthogonalLoop=1;jettySize=auto;html=1;exitX=1;exitY=0;exitDx=0;exitDy=0;entryX=0;entryY=0.5;entryDx=0;entryDy=0;endArrow=none;endFill=0;" parent="1" source="6UBSCnJgMbBsTfhwPMBy-94" target="6UBSCnJgMbBsTfhwPMBy-97" edge="1">
                    <mxGeometry relative="1" as="geometry">
                        <mxPoint x="1157.5" y="-720" as="sourcePoint"/>
                        <mxPoint x="1257.5" y="-780" as="targetPoint"/>
                    </mxGeometry>
                </mxCell>
                <mxCell id="6UBSCnJgMbBsTfhwPMBy-97" value="&lt;span style=&quot;font-size: 15px;&quot;&gt;address&lt;/span&gt;" style="ellipse;whiteSpace=wrap;html=1;" parent="1" vertex="1">
                    <mxGeometry x="1222.5" y="-870" width="115" height="40" as="geometry"/>
                </mxCell>
                <mxCell id="6UBSCnJgMbBsTfhwPMBy-98" style="rounded=0;orthogonalLoop=1;jettySize=auto;html=1;exitX=1;exitY=1;exitDx=0;exitDy=0;entryX=0;entryY=0.5;entryDx=0;entryDy=0;endArrow=none;endFill=0;" parent="1" source="6UBSCnJgMbBsTfhwPMBy-94" target="6UBSCnJgMbBsTfhwPMBy-99" edge="1">
                    <mxGeometry relative="1" as="geometry">
                        <mxPoint x="1197.5" y="-700" as="sourcePoint"/>
                    </mxGeometry>
                </mxCell>
                <mxCell id="6UBSCnJgMbBsTfhwPMBy-99" value="&lt;span style=&quot;font-size: 15px;&quot;&gt;country&lt;/span&gt;" style="ellipse;whiteSpace=wrap;html=1;" parent="1" vertex="1">
                    <mxGeometry x="1222.5" y="-740" width="115" height="40" as="geometry"/>
                </mxCell>
                <mxCell id="6UBSCnJgMbBsTfhwPMBy-100" style="rounded=0;orthogonalLoop=1;jettySize=auto;html=1;exitX=1;exitY=0.5;exitDx=0;exitDy=0;entryX=0;entryY=0.5;entryDx=0;entryDy=0;endArrow=none;endFill=0;" parent="1" source="6UBSCnJgMbBsTfhwPMBy-94" target="6UBSCnJgMbBsTfhwPMBy-101" edge="1">
                    <mxGeometry relative="1" as="geometry">
                        <mxPoint x="1187.5" y="-710" as="sourcePoint"/>
                    </mxGeometry>
                </mxCell>
                <mxCell id="6UBSCnJgMbBsTfhwPMBy-101" value="&lt;span style=&quot;font-size: 15px;&quot;&gt;city&lt;br&gt;&lt;/span&gt;" style="ellipse;whiteSpace=wrap;html=1;" parent="1" vertex="1">
                    <mxGeometry x="1222.5" y="-800" width="115" height="40" as="geometry"/>
                </mxCell>
                <mxCell id="6UBSCnJgMbBsTfhwPMBy-115" style="edgeStyle=none;rounded=0;orthogonalLoop=1;jettySize=auto;html=1;exitX=0.5;exitY=0;exitDx=0;exitDy=0;entryX=0.5;entryY=1;entryDx=0;entryDy=0;endArrow=none;endFill=0;shape=link;" parent="1" source="6UBSCnJgMbBsTfhwPMBy-108" target="6UBSCnJgMbBsTfhwPMBy-7" edge="1">
                    <mxGeometry relative="1" as="geometry"/>
                </mxCell>
                <mxCell id="6UBSCnJgMbBsTfhwPMBy-146" style="edgeStyle=none;rounded=0;orthogonalLoop=1;jettySize=auto;html=1;exitX=0.5;exitY=1;exitDx=0;exitDy=0;entryX=0.5;entryY=0;entryDx=0;entryDy=0;" parent="1" source="6UBSCnJgMbBsTfhwPMBy-108" target="6UBSCnJgMbBsTfhwPMBy-1" edge="1">
                    <mxGeometry relative="1" as="geometry"/>
                </mxCell>
                <mxCell id="6UBSCnJgMbBsTfhwPMBy-108" value="&lt;span style=&quot;font-size: 19px;&quot;&gt;have&lt;/span&gt;" style="rhombus;whiteSpace=wrap;html=1;" parent="1" vertex="1">
                    <mxGeometry x="930" y="-580" width="80" height="80" as="geometry"/>
                </mxCell>
                <mxCell id="6UBSCnJgMbBsTfhwPMBy-109" style="rounded=0;orthogonalLoop=1;jettySize=auto;html=1;exitX=1;exitY=0.5;exitDx=0;exitDy=0;endArrow=none;endFill=0;entryX=0;entryY=0.5;entryDx=0;entryDy=0;" parent="1" source="6UBSCnJgMbBsTfhwPMBy-1" target="6UBSCnJgMbBsTfhwPMBy-112" edge="1">
                    <mxGeometry relative="1" as="geometry">
                        <mxPoint x="984" y="-380" as="sourcePoint"/>
                        <mxPoint x="894" y="-250" as="targetPoint"/>
                    </mxGeometry>
                </mxCell>
                <mxCell id="6UBSCnJgMbBsTfhwPMBy-112" value="phone" style="ellipse;whiteSpace=wrap;html=1;fillColor=none;fontSize=15;" parent="1" vertex="1">
                    <mxGeometry x="1245" y="-438" width="95" height="38" as="geometry"/>
                </mxCell>
                <mxCell id="6UBSCnJgMbBsTfhwPMBy-124" style="rounded=0;orthogonalLoop=1;jettySize=auto;html=1;exitX=1;exitY=0.25;exitDx=0;exitDy=0;entryX=0;entryY=0.5;entryDx=0;entryDy=0;endArrow=none;endFill=0;" parent="1" source="6UBSCnJgMbBsTfhwPMBy-3" target="6UBSCnJgMbBsTfhwPMBy-125" edge="1">
                    <mxGeometry relative="1" as="geometry">
                        <mxPoint x="313" y="-174" as="sourcePoint"/>
                        <mxPoint x="402.5" y="-160" as="targetPoint"/>
                    </mxGeometry>
                </mxCell>
                <mxCell id="6UBSCnJgMbBsTfhwPMBy-125" value="&lt;span style=&quot;font-size: 15px;&quot;&gt;total_price&lt;/span&gt;" style="ellipse;whiteSpace=wrap;html=1;" parent="1" vertex="1">
                    <mxGeometry x="425" y="-260" width="115" height="40" as="geometry"/>
                </mxCell>
                <mxCell id="6UBSCnJgMbBsTfhwPMBy-129" style="edgeStyle=none;rounded=0;orthogonalLoop=1;jettySize=auto;html=1;exitX=0.5;exitY=0;exitDx=0;exitDy=0;entryX=0.5;entryY=1;entryDx=0;entryDy=0;endArrow=none;endFill=0;" parent="1" source="6UBSCnJgMbBsTfhwPMBy-130" target="6UBSCnJgMbBsTfhwPMBy-3" edge="1">
                    <mxGeometry relative="1" as="geometry">
                        <mxPoint x="250" y="-124" as="targetPoint"/>
                    </mxGeometry>
                </mxCell>
                <mxCell id="6UBSCnJgMbBsTfhwPMBy-130" value="&lt;span style=&quot;font-size: 19px;&quot;&gt;contain&lt;/span&gt;" style="rhombus;whiteSpace=wrap;html=1;" parent="1" vertex="1">
                    <mxGeometry x="240" y="-50" width="80" height="80" as="geometry"/>
                </mxCell>
                <mxCell id="6UBSCnJgMbBsTfhwPMBy-133" style="edgeStyle=none;rounded=0;orthogonalLoop=1;jettySize=auto;html=1;exitX=0.5;exitY=0;exitDx=0;exitDy=0;entryX=0.5;entryY=1;entryDx=0;entryDy=0;endArrow=none;endFill=0;" parent="1" source="6UBSCnJgMbBsTfhwPMBy-4" target="6UBSCnJgMbBsTfhwPMBy-130" edge="1">
                    <mxGeometry relative="1" as="geometry">
                        <mxPoint x="249" y="17" as="targetPoint"/>
                        <mxPoint x="249" y="83" as="sourcePoint"/>
                        <Array as="points">
                            <mxPoint x="530" y="30"/>
                        </Array>
                    </mxGeometry>
                </mxCell>
                <mxCell id="6UBSCnJgMbBsTfhwPMBy-140" style="edgeStyle=none;rounded=0;orthogonalLoop=1;jettySize=auto;html=1;exitX=0.5;exitY=1;exitDx=0;exitDy=0;shape=link;" parent="1" source="6UBSCnJgMbBsTfhwPMBy-139" edge="1">
                    <mxGeometry relative="1" as="geometry">
                        <mxPoint x="870" y="10" as="targetPoint"/>
                        <Array as="points">
                            <mxPoint x="620" y="10"/>
                        </Array>
                    </mxGeometry>
                </mxCell>
                <mxCell id="6UBSCnJgMbBsTfhwPMBy-141" style="edgeStyle=none;rounded=0;orthogonalLoop=1;jettySize=auto;html=1;exitX=0.5;exitY=0;exitDx=0;exitDy=0;shape=link;" parent="1" source="6UBSCnJgMbBsTfhwPMBy-139" edge="1">
                    <mxGeometry relative="1" as="geometry">
                        <mxPoint x="280" y="-240" as="targetPoint"/>
                        <Array as="points">
                            <mxPoint x="620" y="-340"/>
                            <mxPoint x="280" y="-340"/>
                        </Array>
                    </mxGeometry>
                </mxCell>
                <mxCell id="6UBSCnJgMbBsTfhwPMBy-139" value="&lt;font style=&quot;font-size: 19px;&quot;&gt;own&lt;/font&gt;" style="rhombus;whiteSpace=wrap;html=1;" parent="1" vertex="1">
                    <mxGeometry x="580" y="-240" width="80" height="80" as="geometry"/>
                </mxCell>
                <mxCell id="6UBSCnJgMbBsTfhwPMBy-142" value="" style="shape=mxgraph.arrows2.wedgeArrow;html=1;bendable=0;startWidth=6.666666666666668;fillColor=strokeColor;defaultFillColor=invert;defaultGradientColor=invert;rounded=0;" parent="1" edge="1">
                    <mxGeometry width="100" height="100" relative="1" as="geometry">
                        <mxPoint x="870" y="9.70999999999998" as="sourcePoint"/>
                        <mxPoint x="880" y="9.70999999999998" as="targetPoint"/>
                    </mxGeometry>
                </mxCell>
                <mxCell id="6UBSCnJgMbBsTfhwPMBy-144" value="" style="shape=mxgraph.arrows2.wedgeArrow;html=1;bendable=0;startWidth=6.666666666666668;fillColor=strokeColor;defaultFillColor=invert;defaultGradientColor=invert;rounded=0;" parent="1" source="6UBSCnJgMbBsTfhwPMBy-3" edge="1">
                    <mxGeometry width="100" height="100" relative="1" as="geometry">
                        <mxPoint x="279.83" y="-239.66" as="sourcePoint"/>
                        <mxPoint x="279.83" y="-230" as="targetPoint"/>
                    </mxGeometry>
                </mxCell>
                <mxCell id="6UBSCnJgMbBsTfhwPMBy-151" style="edgeStyle=none;rounded=0;orthogonalLoop=1;jettySize=auto;html=1;exitX=1;exitY=0.5;exitDx=0;exitDy=0;entryX=0;entryY=0.5;entryDx=0;entryDy=0;endArrow=none;endFill=0;" parent="1" target="6UBSCnJgMbBsTfhwPMBy-152" edge="1">
                    <mxGeometry relative="1" as="geometry">
                        <mxPoint x="320" y="-10" as="sourcePoint"/>
                    </mxGeometry>
                </mxCell>
                <mxCell id="6UBSCnJgMbBsTfhwPMBy-152" value="contain_num" style="ellipse;whiteSpace=wrap;html=1;" parent="1" vertex="1">
                    <mxGeometry x="370" y="-30" width="100" height="40" as="geometry"/>
                </mxCell>
                <mxCell id="6UBSCnJgMbBsTfhwPMBy-153" value="&lt;h1&gt;seller&lt;br&gt;&lt;/h1&gt;" style="rounded=0;whiteSpace=wrap;html=1;" parent="1" vertex="1">
                    <mxGeometry x="1130" y="-200" width="120" height="60" as="geometry"/>
                </mxCell>
                <mxCell id="6UBSCnJgMbBsTfhwPMBy-160" style="rounded=0;orthogonalLoop=1;jettySize=auto;html=1;entryX=0;entryY=0.5;entryDx=0;entryDy=0;endArrow=none;endFill=0;exitX=0.75;exitY=1;exitDx=0;exitDy=0;" parent="1" source="6UBSCnJgMbBsTfhwPMBy-4" target="6UBSCnJgMbBsTfhwPMBy-161" edge="1">
                    <mxGeometry relative="1" as="geometry">
                        <mxPoint x="850" y="310" as="sourcePoint"/>
                    </mxGeometry>
                </mxCell>
                <mxCell id="6UBSCnJgMbBsTfhwPMBy-161" value="&lt;span style=&quot;font-size: 15px;&quot;&gt;infomation&lt;/span&gt;" style="ellipse;whiteSpace=wrap;html=1;" parent="1" vertex="1">
                    <mxGeometry x="575" y="270" width="100" height="40" as="geometry"/>
                </mxCell>
                <mxCell id="6UBSCnJgMbBsTfhwPMBy-166" style="edgeStyle=none;rounded=0;orthogonalLoop=1;jettySize=auto;html=1;exitX=0.5;exitY=0;exitDx=0;exitDy=0;entryX=0.5;entryY=0;entryDx=0;entryDy=0;endArrow=none;endFill=0;" parent="1" source="6UBSCnJgMbBsTfhwPMBy-162" target="6UBSCnJgMbBsTfhwPMBy-8" edge="1">
                    <mxGeometry relative="1" as="geometry"/>
                </mxCell>
                <mxCell id="6UBSCnJgMbBsTfhwPMBy-167" style="edgeStyle=none;rounded=0;orthogonalLoop=1;jettySize=auto;html=1;exitX=0.5;exitY=0;exitDx=0;exitDy=0;entryX=0;entryY=0.5;entryDx=0;entryDy=0;endArrow=none;endFill=0;" parent="1" source="6UBSCnJgMbBsTfhwPMBy-162" target="6UBSCnJgMbBsTfhwPMBy-153" edge="1">
                    <mxGeometry relative="1" as="geometry"/>
                </mxCell>
                <mxCell id="6UBSCnJgMbBsTfhwPMBy-162" value="&lt;font style=&quot;font-size: 18px;&quot;&gt;ISA&lt;/font&gt;" style="triangle;whiteSpace=wrap;html=1;rotation=0;" parent="1" vertex="1">
                    <mxGeometry x="910" y="-210" width="70" height="80" as="geometry"/>
                </mxCell>
                <mxCell id="6UBSCnJgMbBsTfhwPMBy-170" style="edgeStyle=none;rounded=0;orthogonalLoop=1;jettySize=auto;html=1;exitX=0.5;exitY=0;exitDx=0;exitDy=0;entryX=0.5;entryY=1;entryDx=0;entryDy=0;" parent="1" source="6UBSCnJgMbBsTfhwPMBy-171" target="6UBSCnJgMbBsTfhwPMBy-8" edge="1">
                    <mxGeometry relative="1" as="geometry">
                        <mxPoint x="930" y="80" as="targetPoint"/>
                    </mxGeometry>
                </mxCell>
                <mxCell id="6UBSCnJgMbBsTfhwPMBy-173" style="edgeStyle=none;rounded=0;orthogonalLoop=1;jettySize=auto;html=1;exitX=1;exitY=0.5;exitDx=0;exitDy=0;entryX=0;entryY=0.5;entryDx=0;entryDy=0;endArrow=none;endFill=0;" parent="1" source="6UBSCnJgMbBsTfhwPMBy-171" target="6UBSCnJgMbBsTfhwPMBy-172" edge="1">
                    <mxGeometry relative="1" as="geometry"/>
                </mxCell>
                <mxCell id="6UBSCnJgMbBsTfhwPMBy-176" style="edgeStyle=none;rounded=0;orthogonalLoop=1;jettySize=auto;html=1;exitX=0.5;exitY=1;exitDx=0;exitDy=0;shape=link;entryX=0.25;entryY=0;entryDx=0;entryDy=0;" parent="1" source="6UBSCnJgMbBsTfhwPMBy-171" target="6UBSCnJgMbBsTfhwPMBy-9" edge="1">
                    <mxGeometry relative="1" as="geometry">
                        <Array as="points"/>
                    </mxGeometry>
                </mxCell>
                <mxCell id="6UBSCnJgMbBsTfhwPMBy-171" value="&lt;span style=&quot;font-size: 20px;&quot;&gt;post&lt;/span&gt;" style="rhombus;whiteSpace=wrap;html=1;" parent="1" vertex="1">
                    <mxGeometry x="900" y="110" width="80" height="80" as="geometry"/>
                </mxCell>
                <mxCell id="6UBSCnJgMbBsTfhwPMBy-172" value="post_date" style="ellipse;whiteSpace=wrap;html=1;" parent="1" vertex="1">
                    <mxGeometry x="1030" y="130" width="100" height="40" as="geometry"/>
                </mxCell>
                <mxCell id="6UBSCnJgMbBsTfhwPMBy-182" value="" style="edgeStyle=none;rounded=0;orthogonalLoop=1;jettySize=auto;html=1;entryX=0.5;entryY=1;entryDx=0;entryDy=0;endArrow=none;endFill=0;exitX=0.5;exitY=0;exitDx=0;exitDy=0;" parent="1" source="6UBSCnJgMbBsTfhwPMBy-6" target="6UBSCnJgMbBsTfhwPMBy-49" edge="1">
                    <mxGeometry relative="1" as="geometry">
                        <mxPoint x="202.5" y="-824" as="sourcePoint"/>
                        <mxPoint x="202.5" y="-924" as="targetPoint"/>
                    </mxGeometry>
                </mxCell>
                <mxCell id="6UBSCnJgMbBsTfhwPMBy-49" value="&lt;font style=&quot;font-size: 15px;&quot;&gt;&lt;i&gt;&lt;u&gt;id&lt;/u&gt;&lt;/i&gt;&lt;/font&gt;" style="ellipse;whiteSpace=wrap;html=1;" parent="1" vertex="1">
                    <mxGeometry x="367.5" y="-724" width="100" height="40" as="geometry"/>
                </mxCell>
                <mxCell id="6UBSCnJgMbBsTfhwPMBy-195" style="edgeStyle=none;rounded=0;orthogonalLoop=1;jettySize=auto;html=1;exitX=1;exitY=0;exitDx=0;exitDy=0;entryX=0;entryY=0.5;entryDx=0;entryDy=0;endArrow=none;endFill=0;" parent="1" source="6UBSCnJgMbBsTfhwPMBy-228" target="6UBSCnJgMbBsTfhwPMBy-196" edge="1">
                    <mxGeometry relative="1" as="geometry">
                        <mxPoint x="1670" y="-570" as="sourcePoint"/>
                    </mxGeometry>
                </mxCell>
                <mxCell id="6UBSCnJgMbBsTfhwPMBy-196" value="num" style="ellipse;whiteSpace=wrap;html=1;" parent="1" vertex="1">
                    <mxGeometry x="1590" y="-450" width="100" height="40" as="geometry"/>
                </mxCell>
                <mxCell id="6UBSCnJgMbBsTfhwPMBy-200" style="edgeStyle=none;rounded=0;orthogonalLoop=1;jettySize=auto;html=1;exitX=1;exitY=0.5;exitDx=0;exitDy=0;entryX=0;entryY=0.5;entryDx=0;entryDy=0;endArrow=none;endFill=0;" parent="1" target="6UBSCnJgMbBsTfhwPMBy-201" edge="1">
                    <mxGeometry relative="1" as="geometry">
                        <mxPoint x="1250" y="-140" as="sourcePoint"/>
                    </mxGeometry>
                </mxCell>
                <mxCell id="6UBSCnJgMbBsTfhwPMBy-201" value="total_income" style="ellipse;whiteSpace=wrap;html=1;" parent="1" vertex="1">
                    <mxGeometry x="1345" y="-110" width="100" height="40" as="geometry"/>
                </mxCell>
                <mxCell id="6UBSCnJgMbBsTfhwPMBy-205" style="rounded=0;orthogonalLoop=1;jettySize=auto;html=1;exitX=1;exitY=0.25;exitDx=0;exitDy=0;entryX=0;entryY=0.5;entryDx=0;entryDy=0;endArrow=none;endFill=0;" parent="1" target="6UBSCnJgMbBsTfhwPMBy-206" edge="1">
                    <mxGeometry relative="1" as="geometry">
                        <mxPoint x="427.5" y="-594" as="sourcePoint"/>
                        <mxPoint x="490" y="-539" as="targetPoint"/>
                    </mxGeometry>
                </mxCell>
                <mxCell id="6UBSCnJgMbBsTfhwPMBy-206" value="&lt;span style=&quot;font-size: 15px;&quot;&gt;payment&lt;/span&gt;" style="ellipse;whiteSpace=wrap;html=1;" parent="1" vertex="1">
                    <mxGeometry x="487.5" y="-694" width="115" height="40" as="geometry"/>
                </mxCell>
                <mxCell id="6UBSCnJgMbBsTfhwPMBy-210" style="rounded=0;orthogonalLoop=1;jettySize=auto;html=1;exitX=1;exitY=0.25;exitDx=0;exitDy=0;entryX=1;entryY=1;entryDx=0;entryDy=0;endArrow=none;endFill=0;" parent="1" target="6UBSCnJgMbBsTfhwPMBy-211" edge="1">
                    <mxGeometry relative="1" as="geometry">
                        <mxPoint x="377.5" y="-594" as="sourcePoint"/>
                        <mxPoint x="440" y="-539" as="targetPoint"/>
                    </mxGeometry>
                </mxCell>
                <mxCell id="6UBSCnJgMbBsTfhwPMBy-211" value="&lt;span style=&quot;font-size: 15px;&quot;&gt;date&lt;/span&gt;" style="ellipse;whiteSpace=wrap;html=1;" parent="1" vertex="1">
                    <mxGeometry x="237.5" y="-714" width="115" height="40" as="geometry"/>
                </mxCell>
                <mxCell id="6UBSCnJgMbBsTfhwPMBy-218" style="edgeStyle=none;rounded=0;orthogonalLoop=1;jettySize=auto;html=1;exitX=0.5;exitY=0;exitDx=0;exitDy=0;shape=link;" parent="1" source="6UBSCnJgMbBsTfhwPMBy-212" target="6UBSCnJgMbBsTfhwPMBy-6" edge="1">
                    <mxGeometry relative="1" as="geometry">
                        <mxPoint x="417.5" y="-524" as="targetPoint"/>
                    </mxGeometry>
                </mxCell>
                <mxCell id="6UBSCnJgMbBsTfhwPMBy-219" style="edgeStyle=none;rounded=0;orthogonalLoop=1;jettySize=auto;html=1;exitX=0.5;exitY=1;exitDx=0;exitDy=0;entryX=0;entryY=0.5;entryDx=0;entryDy=0;" parent="1" source="6UBSCnJgMbBsTfhwPMBy-212" target="6UBSCnJgMbBsTfhwPMBy-3" edge="1">
                    <mxGeometry relative="1" as="geometry">
                        <mxPoint x="367.5000000000002" y="-384" as="sourcePoint"/>
                        <mxPoint x="170" y="-200" as="targetPoint"/>
                        <Array as="points">
                            <mxPoint x="170" y="-384"/>
                            <mxPoint x="170" y="-200"/>
                        </Array>
                    </mxGeometry>
                </mxCell>
                <mxCell id="6UBSCnJgMbBsTfhwPMBy-212" value="&lt;font style=&quot;font-size: 19px;&quot;&gt;deal&lt;br&gt;&lt;/font&gt;" style="rhombus;whiteSpace=wrap;html=1;" parent="1" vertex="1">
                    <mxGeometry x="377.5" y="-464" width="80" height="80" as="geometry"/>
                </mxCell>
                <mxCell id="6UBSCnJgMbBsTfhwPMBy-216" value="" style="shape=mxgraph.arrows2.wedgeArrow;html=1;bendable=0;startWidth=6.666666666666668;fillColor=strokeColor;defaultFillColor=invert;defaultGradientColor=invert;rounded=0;" parent="1" target="6UBSCnJgMbBsTfhwPMBy-3" edge="1">
                    <mxGeometry width="100" height="100" relative="1" as="geometry">
                        <mxPoint x="279.83" y="-239.66" as="sourcePoint"/>
                        <mxPoint x="279.83" y="-230" as="targetPoint"/>
                    </mxGeometry>
                </mxCell>
                <mxCell id="6UBSCnJgMbBsTfhwPMBy-3" value="&lt;h1&gt;shopping cart&amp;nbsp;&lt;br&gt;&lt;/h1&gt;" style="rounded=0;whiteSpace=wrap;html=1;" parent="1" vertex="1">
                    <mxGeometry x="220" y="-230" width="120" height="60" as="geometry"/>
                </mxCell>
                <mxCell id="6UBSCnJgMbBsTfhwPMBy-220" style="edgeStyle=none;rounded=0;orthogonalLoop=1;jettySize=auto;html=1;exitX=0;exitY=0.5;exitDx=0;exitDy=0;shape=link;entryX=1;entryY=0.5;entryDx=0;entryDy=0;" parent="1" source="6UBSCnJgMbBsTfhwPMBy-221" target="6UBSCnJgMbBsTfhwPMBy-6" edge="1">
                    <mxGeometry relative="1" as="geometry">
                        <mxPoint x="590.5" y="-574" as="targetPoint"/>
                    </mxGeometry>
                </mxCell>
                <mxCell id="6UBSCnJgMbBsTfhwPMBy-223" style="edgeStyle=none;rounded=0;orthogonalLoop=1;jettySize=auto;html=1;exitX=0.5;exitY=1;exitDx=0;exitDy=0;entryX=0;entryY=0.25;entryDx=0;entryDy=0;" parent="1" source="6UBSCnJgMbBsTfhwPMBy-221" target="6UBSCnJgMbBsTfhwPMBy-8" edge="1">
                    <mxGeometry relative="1" as="geometry">
                        <Array as="points">
                            <mxPoint x="670" y="-5"/>
                        </Array>
                    </mxGeometry>
                </mxCell>
                <mxCell id="6UBSCnJgMbBsTfhwPMBy-221" value="&lt;font style=&quot;font-size: 19px;&quot;&gt;pay&lt;br&gt;&lt;/font&gt;" style="rhombus;whiteSpace=wrap;html=1;" parent="1" vertex="1">
                    <mxGeometry x="630" y="-604" width="80" height="80" as="geometry"/>
                </mxCell>
                <mxCell id="6UBSCnJgMbBsTfhwPMBy-234" style="edgeStyle=none;rounded=0;orthogonalLoop=1;jettySize=auto;html=1;exitX=0.5;exitY=1;exitDx=0;exitDy=0;entryX=1;entryY=0;entryDx=0;entryDy=0;endArrow=none;endFill=0;" parent="1" source="6UBSCnJgMbBsTfhwPMBy-228" target="6UBSCnJgMbBsTfhwPMBy-153" edge="1">
                    <mxGeometry relative="1" as="geometry">
                        <Array as="points">
                            <mxPoint x="1500" y="-200"/>
                        </Array>
                    </mxGeometry>
                </mxCell>
                <mxCell id="6UBSCnJgMbBsTfhwPMBy-228" value="&lt;span style=&quot;font-size: 19px;&quot;&gt;sell&lt;/span&gt;" style="rhombus;whiteSpace=wrap;html=1;" parent="1" vertex="1">
                    <mxGeometry x="1460" y="-420" width="80" height="80" as="geometry"/>
                </mxCell>
                <mxCell id="6UBSCnJgMbBsTfhwPMBy-230" style="edgeStyle=none;rounded=0;orthogonalLoop=1;jettySize=auto;html=1;entryX=0;entryY=0.5;entryDx=0;entryDy=0;endArrow=none;endFill=0;exitX=1;exitY=1;exitDx=0;exitDy=0;" parent="1" source="6UBSCnJgMbBsTfhwPMBy-228" target="6UBSCnJgMbBsTfhwPMBy-231" edge="1">
                    <mxGeometry relative="1" as="geometry">
                        <mxPoint x="1520" y="-365" as="sourcePoint"/>
                    </mxGeometry>
                </mxCell>
                <mxCell id="6UBSCnJgMbBsTfhwPMBy-231" value="profit" style="ellipse;whiteSpace=wrap;html=1;dashed=1;" parent="1" vertex="1">
                    <mxGeometry x="1590" y="-340" width="100" height="40" as="geometry"/>
                </mxCell>
                <mxCell id="6UBSCnJgMbBsTfhwPMBy-232" style="edgeStyle=none;rounded=0;orthogonalLoop=1;jettySize=auto;html=1;exitX=1;exitY=0.5;exitDx=0;exitDy=0;entryX=0;entryY=0.5;entryDx=0;entryDy=0;endArrow=none;endFill=0;" parent="1" source="6UBSCnJgMbBsTfhwPMBy-228" target="6UBSCnJgMbBsTfhwPMBy-233" edge="1">
                    <mxGeometry relative="1" as="geometry">
                        <mxPoint x="1540" y="-340" as="sourcePoint"/>
                    </mxGeometry>
                </mxCell>
                <mxCell id="6UBSCnJgMbBsTfhwPMBy-233" value="price" style="ellipse;whiteSpace=wrap;html=1;" parent="1" vertex="1">
                    <mxGeometry x="1610" y="-400" width="100" height="40" as="geometry"/>
                </mxCell>
                <mxCell id="XJRDdhlwDgM6eqXqExOu-2" value="disjoint" style="text;html=1;strokeColor=none;fillColor=none;align=center;verticalAlign=middle;whiteSpace=wrap;rounded=0;" parent="1" vertex="1">
                    <mxGeometry x="930" y="-230" width="60" height="30" as="geometry"/>
                </mxCell>
                <mxCell id="XJRDdhlwDgM6eqXqExOu-3" style="rounded=0;orthogonalLoop=1;jettySize=auto;html=1;entryX=0;entryY=0.5;entryDx=0;entryDy=0;endArrow=none;endFill=0;exitX=0.5;exitY=1;exitDx=0;exitDy=0;" parent="1" source="6UBSCnJgMbBsTfhwPMBy-4" target="XJRDdhlwDgM6eqXqExOu-4" edge="1">
                    <mxGeometry relative="1" as="geometry">
                        <mxPoint x="540" y="210" as="sourcePoint"/>
                    </mxGeometry>
                </mxCell>
                <mxCell id="XJRDdhlwDgM6eqXqExOu-4" value="&lt;span style=&quot;font-size: 15px;&quot;&gt;category&lt;/span&gt;" style="ellipse;whiteSpace=wrap;html=1;" parent="1" vertex="1">
                    <mxGeometry x="560" y="440" width="100" height="40" as="geometry"/>
                </mxCell>
                <mxCell id="XJRDdhlwDgM6eqXqExOu-6" style="rounded=0;orthogonalLoop=1;jettySize=auto;html=1;entryX=0;entryY=0.5;entryDx=0;entryDy=0;endArrow=none;endFill=0;" parent="1" target="XJRDdhlwDgM6eqXqExOu-7" edge="1">
                    <mxGeometry relative="1" as="geometry">
                        <mxPoint x="50" y="272.5" as="sourcePoint"/>
                    </mxGeometry>
                </mxCell>
                <mxCell id="XJRDdhlwDgM6eqXqExOu-7" value="price" style="ellipse;whiteSpace=wrap;html=1;fontSize=16;" parent="1" vertex="1">
                    <mxGeometry x="-50" y="152.5" width="100" height="40" as="geometry"/>
                </mxCell>
                <mxCell id="XJRDdhlwDgM6eqXqExOu-9" style="rounded=0;orthogonalLoop=1;jettySize=auto;html=1;entryX=0;entryY=0.5;entryDx=0;entryDy=0;endArrow=none;endFill=0;" parent="1" target="XJRDdhlwDgM6eqXqExOu-10" edge="1">
                    <mxGeometry relative="1" as="geometry">
                        <mxPoint x="40" y="282.5" as="sourcePoint"/>
                    </mxGeometry>
                </mxCell>
                <mxCell id="XJRDdhlwDgM6eqXqExOu-10" value="&lt;span style=&quot;font-size: 15px;&quot;&gt;type_name&lt;/span&gt;" style="ellipse;whiteSpace=wrap;html=1;" parent="1" vertex="1">
                    <mxGeometry x="-70" y="347.5" width="100" height="40" as="geometry"/>
                </mxCell>
                <mxCell id="XJRDdhlwDgM6eqXqExOu-11" style="edgeStyle=none;rounded=0;orthogonalLoop=1;jettySize=auto;html=1;exitX=0.5;exitY=0;exitDx=0;exitDy=0;entryX=0;entryY=0.5;entryDx=0;entryDy=0;endArrow=none;endFill=0;" parent="1" source="6UBSCnJgMbBsTfhwPMBy-61" target="XJRDdhlwDgM6eqXqExOu-12" edge="1">
                    <mxGeometry relative="1" as="geometry">
                        <mxPoint x="770" y="90" as="sourcePoint"/>
                    </mxGeometry>
                </mxCell>
                <mxCell id="XJRDdhlwDgM6eqXqExOu-12" value="rating" style="ellipse;whiteSpace=wrap;html=1;" parent="1" vertex="1">
                    <mxGeometry x="790" y="70" width="100" height="40" as="geometry"/>
                </mxCell>
                <mxCell id="XJRDdhlwDgM6eqXqExOu-15" style="rounded=0;orthogonalLoop=1;jettySize=auto;html=1;exitX=0.094;exitY=1.009;exitDx=0;exitDy=0;entryX=0;entryY=0.5;entryDx=0;entryDy=0;endArrow=none;endFill=0;exitPerimeter=0;" parent="1" source="6UBSCnJgMbBsTfhwPMBy-4" target="XJRDdhlwDgM6eqXqExOu-16" edge="1">
                    <mxGeometry relative="1" as="geometry">
                        <mxPoint x="420" y="320" as="sourcePoint"/>
                    </mxGeometry>
                </mxCell>
                <mxCell id="XJRDdhlwDgM6eqXqExOu-16" value="&lt;span style=&quot;font-size: 15px;&quot;&gt;picture&lt;/span&gt;" style="ellipse;whiteSpace=wrap;html=1;" parent="1" vertex="1">
                    <mxGeometry x="297.5" y="400" width="100" height="40" as="geometry"/>
                </mxCell>
                <mxCell id="XJRDdhlwDgM6eqXqExOu-18" style="rounded=0;orthogonalLoop=1;jettySize=auto;html=1;exitX=1;exitY=0.75;exitDx=0;exitDy=0;entryX=0;entryY=0.5;entryDx=0;entryDy=0;endArrow=none;endFill=0;" parent="1" source="6UBSCnJgMbBsTfhwPMBy-1" target="XJRDdhlwDgM6eqXqExOu-19" edge="1">
                    <mxGeometry relative="1" as="geometry">
                        <mxPoint x="1040" y="-445" as="sourcePoint"/>
                    </mxGeometry>
                </mxCell>
                <mxCell id="XJRDdhlwDgM6eqXqExOu-19" value="&lt;font style=&quot;font-size: 15px;&quot;&gt;salt&lt;/font&gt;" style="ellipse;whiteSpace=wrap;html=1;" parent="1" vertex="1">
                    <mxGeometry x="1237.5" y="-380" width="100" height="40" as="geometry"/>
                </mxCell>
                <mxCell id="XJRDdhlwDgM6eqXqExOu-20" value="&lt;h1&gt;security&lt;/h1&gt;" style="rounded=0;whiteSpace=wrap;html=1;" parent="1" vertex="1">
                    <mxGeometry x="740" y="-720" width="120" height="60" as="geometry"/>
                </mxCell>
                <mxCell id="XJRDdhlwDgM6eqXqExOu-21" style="edgeStyle=none;rounded=0;orthogonalLoop=1;jettySize=auto;html=1;exitX=0.5;exitY=0;exitDx=0;exitDy=0;entryX=0.5;entryY=1;entryDx=0;entryDy=0;endArrow=none;endFill=0;shape=link;" parent="1" source="XJRDdhlwDgM6eqXqExOu-22" edge="1">
                    <mxGeometry relative="1" as="geometry">
                        <mxPoint x="800" y="-660" as="targetPoint"/>
                    </mxGeometry>
                </mxCell>
                <mxCell id="XJRDdhlwDgM6eqXqExOu-22" value="&lt;span style=&quot;font-size: 19px;&quot;&gt;have&lt;/span&gt;" style="rhombus;whiteSpace=wrap;html=1;" parent="1" vertex="1">
                    <mxGeometry x="760" y="-580" width="80" height="80" as="geometry"/>
                </mxCell>
                <mxCell id="XJRDdhlwDgM6eqXqExOu-24" style="edgeStyle=none;rounded=0;orthogonalLoop=1;jettySize=auto;html=1;endArrow=none;endFill=0;shape=link;width=-3.8461538461538467;exitX=0;exitY=0;exitDx=0;exitDy=0;" parent="1" source="6UBSCnJgMbBsTfhwPMBy-1" target="XJRDdhlwDgM6eqXqExOu-22" edge="1">
                    <mxGeometry relative="1" as="geometry">
                        <mxPoint x="860" y="-590" as="targetPoint"/>
                        <mxPoint x="880" y="-470" as="sourcePoint"/>
                    </mxGeometry>
                </mxCell>
                <mxCell id="XJRDdhlwDgM6eqXqExOu-25" style="rounded=0;orthogonalLoop=1;jettySize=auto;html=1;exitX=0.5;exitY=0;exitDx=0;exitDy=0;entryX=0;entryY=0.5;entryDx=0;entryDy=0;endArrow=none;endFill=0;" parent="1" source="XJRDdhlwDgM6eqXqExOu-20" target="XJRDdhlwDgM6eqXqExOu-26" edge="1">
                    <mxGeometry relative="1" as="geometry">
                        <mxPoint x="710" y="-860" as="sourcePoint"/>
                    </mxGeometry>
                </mxCell>
                <mxCell id="XJRDdhlwDgM6eqXqExOu-26" value="&lt;font style=&quot;font-size: 15px;&quot;&gt;password&lt;/font&gt;" style="ellipse;whiteSpace=wrap;html=1;" parent="1" vertex="1">
                    <mxGeometry x="700" y="-850" width="100" height="40" as="geometry"/>
                </mxCell>
                <mxCell id="XJRDdhlwDgM6eqXqExOu-27" style="edgeStyle=none;rounded=0;orthogonalLoop=1;jettySize=auto;html=1;exitX=1;exitY=0;exitDx=0;exitDy=0;entryX=0;entryY=0.5;entryDx=0;entryDy=0;endArrow=none;endFill=0;" parent="1" target="XJRDdhlwDgM6eqXqExOu-28" edge="1">
                    <mxGeometry relative="1" as="geometry">
                        <mxPoint x="855" y="-720" as="sourcePoint"/>
                    </mxGeometry>
                </mxCell>
                <mxCell id="XJRDdhlwDgM6eqXqExOu-28" value="&lt;font style=&quot;font-size: 15px;&quot;&gt;&lt;i&gt;&lt;u&gt;id&lt;/u&gt;&lt;/i&gt;&lt;/font&gt;" style="ellipse;whiteSpace=wrap;html=1;" parent="1" vertex="1">
                    <mxGeometry x="910" y="-840" width="100" height="40" as="geometry"/>
                </mxCell>
                <mxCell id="XJRDdhlwDgM6eqXqExOu-30" value="belong" style="rhombus;whiteSpace=wrap;html=1;" parent="1" vertex="1">
                    <mxGeometry x="170" y="90" width="80" height="80" as="geometry"/>
                </mxCell>
                <mxCell id="XJRDdhlwDgM6eqXqExOu-31" value="belong" style="rhombus;whiteSpace=wrap;html=1;" parent="1" vertex="1">
                    <mxGeometry x="177.5" y="97.5" width="65" height="65" as="geometry"/>
                </mxCell>
                <mxCell id="XJRDdhlwDgM6eqXqExOu-32" value="&lt;h1&gt;goods&lt;/h1&gt;" style="rounded=0;whiteSpace=wrap;html=1;movable=1;resizable=1;rotatable=1;deletable=1;editable=1;locked=0;connectable=1;" parent="1" vertex="1">
                    <mxGeometry x="20" y="240" width="120" height="60" as="geometry"/>
                </mxCell>
                <mxCell id="XJRDdhlwDgM6eqXqExOu-34" value="&lt;h1&gt;type&lt;/h1&gt;" style="rounded=0;whiteSpace=wrap;html=1;movable=1;resizable=1;rotatable=1;deletable=1;editable=1;locked=0;connectable=1;" parent="1" vertex="1">
                    <mxGeometry x="30" y="245" width="100" height="50" as="geometry"/>
                </mxCell>
                <mxCell id="XJRDdhlwDgM6eqXqExOu-36" style="edgeStyle=none;rounded=0;orthogonalLoop=1;jettySize=auto;html=1;exitX=1;exitY=0.5;exitDx=0;exitDy=0;entryX=0;entryY=0.5;entryDx=0;entryDy=0;" parent="1" source="XJRDdhlwDgM6eqXqExOu-30" target="6UBSCnJgMbBsTfhwPMBy-4" edge="1">
                    <mxGeometry relative="1" as="geometry">
                        <mxPoint x="390" y="155" as="sourcePoint"/>
                        <mxPoint x="230" y="155" as="targetPoint"/>
                    </mxGeometry>
                </mxCell>
                <mxCell id="XJRDdhlwDgM6eqXqExOu-37" style="edgeStyle=none;rounded=0;orthogonalLoop=1;jettySize=auto;html=1;exitX=1.13;exitY=0.55;exitDx=0;exitDy=0;entryX=0;entryY=0.5;entryDx=0;entryDy=0;endArrow=none;endFill=0;shape=link;width=2.2222222222222214;exitPerimeter=0;" parent="1" source="XJRDdhlwDgM6eqXqExOu-34" target="XJRDdhlwDgM6eqXqExOu-30" edge="1">
                    <mxGeometry relative="1" as="geometry">
                        <mxPoint x="-20" y="190" as="sourcePoint"/>
                        <mxPoint x="130" y="320" as="targetPoint"/>
                    </mxGeometry>
                </mxCell>
                <mxCell id="XJRDdhlwDgM6eqXqExOu-38" style="edgeStyle=none;rounded=0;orthogonalLoop=1;jettySize=auto;html=1;entryX=0;entryY=0.5;entryDx=0;entryDy=0;endArrow=none;endFill=0;exitX=0.5;exitY=1;exitDx=0;exitDy=0;" parent="1" source="XJRDdhlwDgM6eqXqExOu-34" target="XJRDdhlwDgM6eqXqExOu-39" edge="1">
                    <mxGeometry relative="1" as="geometry">
                        <mxPoint x="155" y="360" as="sourcePoint"/>
                    </mxGeometry>
                </mxCell>
                <mxCell id="XJRDdhlwDgM6eqXqExOu-39" value="&lt;font style=&quot;font-size: 15px;&quot;&gt;&lt;i&gt;&lt;u&gt;id&lt;/u&gt;&lt;/i&gt;&lt;/font&gt;" style="ellipse;whiteSpace=wrap;html=1;" parent="1" vertex="1">
                    <mxGeometry x="90" y="420" width="100" height="40" as="geometry"/>
                </mxCell>
            </root>
        </mxGraphModel>
    </diagram>
</mxfile>